<svg width="24" height="24" viewBox="0 0 24 24" fill="none" xmlns="http://www.w3.org/2000/svg">
<g clip-path="url(#clip0_2111_15518)">
<path d="M12 24C18.6273 24 23.9999 18.6274 23.9999 12C23.9999 5.37262 18.6273 6.10352e-05 12 6.10352e-05C5.37256 6.10352e-05 0 5.37262 0 12C0 18.6274 5.37256 24 12 24Z" fill="#F0F0F0"/>
<path d="M11.9999 0.00012207C8.07405 0.00012207 4.58871 1.88558 2.39941 4.80012H21.6004C19.4111 1.88553 15.9258 0.00012207 11.9999 0.00012207Z" fill="#0052B4"/>
<path d="M11.9999 24C15.9258 24 19.4111 22.1145 21.6004 19.2H2.39941C4.58866 22.1145 8.07405 24 11.9999 24Z" fill="#0052B4"/>
<path d="M0 12.0001C0 12.8221 0.082875 13.6246 0.240328 14.4001H23.7597C23.9172 13.6246 24 12.8221 24 12.0001C24 11.1781 23.9171 10.3756 23.7597 9.6001H0.240328C0.082875 10.3756 0 11.1781 0 12.0001Z" fill="#0052B4"/>
<path d="M3.51468 3.51477C-1.17156 8.201 -1.17156 15.799 3.51468 20.4853C5.45122 18.5488 7.31366 16.6863 11.9999 12.0001L3.51468 3.51477Z" fill="#D80027"/>
<path d="M4.8567 8.86963L5.63361 11.261H8.14826L6.11403 12.739L6.89094 15.1304L4.8567 13.6524L2.82237 15.1304L3.59947 12.739L1.56519 11.261H4.07965L4.8567 8.86963Z" fill="#F0F0F0"/>
</g>
<defs>
<clipPath id="clip0_2111_15518">
<rect width="24" height="24" fill="white"/>
</clipPath>
</defs>
</svg>
