<svg width="24" height="24" viewBox="0 0 24 24" fill="none" xmlns="http://www.w3.org/2000/svg">
<g clip-path="url(#clip0_2111_15644)">
<path d="M23.2536 16.1739C23.736 14.8739 24 13.4678 24 12C24 10.5321 23.736 9.12601 23.2536 7.82608L12 6.78259L0.746391 7.82608C0.264 9.12601 0 10.5321 0 12C0 13.4678 0.264 14.8739 0.746391 16.1739L12 17.2173L23.2536 16.1739Z" fill="#6DA544"/>
<path d="M23.2538 7.82611C21.5583 3.2565 17.1598 0 12.0002 0C6.84061 0 2.4421 3.2565 0.746582 7.82611H23.2538Z" fill="#FFDA44"/>
<path d="M12.0002 24.0001C17.1598 24.0001 21.5583 20.7436 23.2538 16.174H0.746582C2.4421 20.7436 6.84061 24.0001 12.0002 24.0001Z" fill="#D80027"/>
</g>
<defs>
<clipPath id="clip0_2111_15644">
<rect width="24" height="24" fill="white"/>
</clipPath>
</defs>
</svg>
