<svg width="24" height="24" viewBox="0 0 24 24" fill="none" xmlns="http://www.w3.org/2000/svg">
<g clip-path="url(#clip0_2111_15635)">
<path d="M12 24C18.6274 24 24 18.6274 24 12C24 5.37258 18.6274 0 12 0C5.37258 0 0 5.37258 0 12C0 18.6274 5.37258 24 12 24Z" fill="#D80027"/>
<path d="M19.0921 9.84846H13.6733L11.9999 4.6969L10.3265 9.84846H4.90771L9.29053 13.0313L7.61709 18.1828L11.9999 15L16.3827 18.1828L14.7093 13.0313L19.0921 9.84846ZM10.5187 12.6328L11.0858 10.8891H12.9187L13.4858 12.6328L12.0046 13.711L10.5187 12.6328ZM12.5765 9.84846H11.4233L11.9999 8.0719L12.5765 9.84846ZM14.3718 11.9906L14.0155 10.8938H15.8812L14.3718 11.9906ZM9.98897 10.8938L9.63272 11.9906L8.12334 10.8938H9.98897ZM9.5999 15.4547L10.1765 13.6781L11.1093 14.3578L9.5999 15.4547ZM12.8858 14.3578L13.8187 13.6781L14.3952 15.4547L12.8858 14.3578Z" fill="#6DA544"/>
</g>
<defs>
<clipPath id="clip0_2111_15635">
<rect width="24" height="24" fill="white"/>
</clipPath>
</defs>
</svg>
